<?xml version="1.0" standalone="no"?><!-- Generator: Gravit.io --><svg xmlns="http://www.w3.org/2000/svg" xmlns:xlink="http://www.w3.org/1999/xlink" style="isolation:isolate" viewBox="0 0 512 512" width="512" height="512"><defs><clipPath id="_clipPath_wnXRAc2xK0QkNdyJZ7inp64bIE3HiWHg"><rect width="512" height="512"/></clipPath></defs><g clip-path="url(#_clipPath_wnXRAc2xK0QkNdyJZ7inp64bIE3HiWHg)"><g id="Group"><g id="Group"><path d=" M 255.997 0 C 114.615 0 0.002 114.617 0.002 255.993 C 0.002 397.369 114.615 512 255.995 512 C 397.374 512 511.997 397.374 511.997 255.993 C 511.997 114.612 397.376 0 255.997 0 Z  M 69.516 352.422 C 69.516 272.451 139.75 272.468 155.335 251.558 L 157.118 242.022 C 135.222 230.92 119.764 204.172 119.764 172.878 C 119.764 131.655 146.58 98.231 179.65 98.231 C 205.691 98.231 227.787 118.991 236.034 147.926 C 202.907 158.453 178.402 194.372 178.402 237.07 C 178.402 266.465 189.991 293.492 209.015 310.663 C 205.96 312.23 202.562 313.827 199.64 315.196 C 184.299 322.393 163.034 332.398 147.693 352.422 L 69.516 352.422 L 69.516 352.422 Z  M 256.775 416.609 L 256.775 416.605 L 255.212 416.605 L 145.863 416.605 C 145.863 336.637 216.096 336.659 231.682 315.749 L 233.465 306.214 C 211.568 295.112 196.111 268.363 196.111 237.07 C 196.111 195.846 222.926 162.423 255.997 162.423 C 289.067 162.423 315.882 195.846 315.882 237.07 C 315.882 268.094 300.7 294.684 279.095 305.953 L 281.126 316.794 C 298.225 336.69 366.122 337.987 366.122 416.609 L 256.775 416.609 L 256.775 416.609 Z  M 364.294 352.426 L 364.294 352.422 L 364.294 352.422 C 348.947 332.401 327.682 322.398 312.341 315.201 C 309.322 313.785 305.975 312.213 302.983 310.677 C 321.99 293.484 333.592 266.399 333.592 237.07 C 333.592 194.377 309.096 158.465 275.978 147.935 C 284.22 118.995 306.316 98.235 332.362 98.235 C 365.436 98.235 392.248 131.658 392.248 172.881 C 392.248 203.905 377.065 230.492 355.46 241.765 L 357.491 252.605 C 374.59 272.498 442.487 273.794 442.487 352.426 L 364.294 352.426 Z " fill="rgb(0,171,229)"/></g></g></g></svg>