<?xml version="1.0" standalone="no"?><!-- Generator: Gravit.io --><svg xmlns="http://www.w3.org/2000/svg" xmlns:xlink="http://www.w3.org/1999/xlink" style="isolation:isolate" viewBox="0 0 512 512" width="512" height="512"><defs><clipPath id="_clipPath_5YR44T3MtZ4O6ZVpLkqUnYWnScm5ZyYo"><rect width="512" height="512"/></clipPath></defs><g clip-path="url(#_clipPath_5YR44T3MtZ4O6ZVpLkqUnYWnScm5ZyYo)"><path d=" M 447.47 34.394 C 441.611 28.535 432.118 28.535 426.259 34.394 L 396.259 64.394 C 390.4 70.253 390.4 79.746 396.259 85.605 C 402.118 91.464 411.611 91.465 417.47 85.605 L 447.47 55.605 C 453.329 49.746 453.329 40.253 447.47 34.394 Z  M 466.865 120 L 436.865 120 C 428.574 120 421.865 126.709 421.865 135 C 421.865 143.291 428.574 150 436.865 150 L 466.865 150 C 475.156 150 481.865 143.291 481.865 135 C 481.865 126.709 475.156 120 466.865 120 Z  M 346.865 0 C 338.574 0 331.865 6.709 331.865 15 L 331.865 45 C 331.865 53.291 338.574 60 346.865 60 C 355.156 60 361.865 53.291 361.865 45 L 361.865 15 C 361.865 6.709 355.156 0 346.865 0 Z  M 286.267 445.279 L 306.672 424.874 C 324.291 407.258 324.233 378.774 306.673 361.243 L 291.517 346.076 C 283.14 351.703 275.14 357.817 267.362 364.341 L 285.462 382.468 C 291.307 388.283 291.348 397.747 285.462 403.664 L 264.72 424.406 L 234.237 394.873 L 191.813 437.297 L 259.871 503.244 C 271.485 514.888 290.554 514.954 302.278 503.229 C 313.982 491.525 313.982 472.497 302.278 460.792 L 286.267 445.279 Z  M 117.575 256.99 L 43.322 331.228 C 25.777 348.773 25.704 377.257 43.322 394.875 L 85.744 437.297 C 103.289 454.842 131.773 454.914 149.391 437.297 L 223.637 363.051 L 117.575 256.99 Z  M 128.181 373.665 C 122.322 379.524 112.829 379.524 106.97 373.665 C 101.111 367.806 101.111 358.313 106.97 352.454 L 128.181 331.243 C 134.04 325.384 143.533 325.384 149.392 331.243 C 155.251 337.102 155.251 346.595 149.392 352.454 L 128.181 373.665 Z  M 210.115 82.905 L 208.612 90.439 C 198.025 143.397 172.295 193.708 137.494 234.485 L 246.141 343.133 C 286.914 308.339 336.532 281.918 389.492 271.318 L 397.04 269.815 L 210.115 82.905 Z  M 467.07 212.578 L 267.382 12.861 C 255.604 1.113 236.553 1.252 224.93 12.846 C 213.241 24.565 213.241 43.593 224.93 55.297 L 424.648 255 C 436.348 266.701 455.369 266.701 467.07 255 C 478.802 243.268 478.802 224.308 467.07 212.578 Z " fill="rgb(0,175,237)"/></g></svg>