<?xml version="1.0" standalone="no"?><!-- Generator: Gravit.io --><svg xmlns="http://www.w3.org/2000/svg" xmlns:xlink="http://www.w3.org/1999/xlink" style="isolation:isolate" viewBox="0 0 504 504" width="504" height="504"><defs><clipPath id="_clipPath_1hMf2kp6I7vV4hP6tsIP80yzNSmpTpUt"><rect width="504" height="504"/></clipPath></defs><g clip-path="url(#_clipPath_1hMf2kp6I7vV4hP6tsIP80yzNSmpTpUt)"><path d=" M 0 250.031 C 0 110.948 112.918 -1.97 252 -1.97 C 391.083 -1.97 504.001 110.948 504.001 250.031 C 504.001 389.114 391.083 502.031 252 502.031 C 112.918 502.031 0 389.114 0 250.031 Z " fill="rgb(0,173,233)"/><path d=" M 94.5 363.431 L 94.5 381.938 L 102.375 393.75 L 401.625 393.75 L 409.5 381.938 L 409.5 363.431 L 94.5 363.431 Z " fill="rgb(43,59,78)"/><path d=" M 378.975 345.319 L 125.4 345.319 C 118.707 345.319 113.588 340.2 113.588 333.507 L 113.588 122.062 C 113.588 115.369 118.707 110.25 125.4 110.25 L 378.581 110.25 C 385.275 110.25 390.393 115.369 390.393 122.062 L 390.393 333.506 C 390.787 339.806 385.276 345.319 378.975 345.319 Z " fill="rgb(50,74,94)"/><rect x="133.088" y="129.937" width="237.431" height="195.694" transform="matrix(1,0,0,1,0,0)" fill="rgb(230,233,238)"/><rect x="224.437" y="370.912" width="55.125" height="7.875" transform="matrix(1,0,0,1,0,0)" fill="rgb(172,179,186)"/><path d=" M 148.444 206.719 C 148.444 172.165 176.497 144.112 211.05 144.112 C 245.604 144.112 273.657 172.165 273.657 206.719 C 273.657 241.272 245.604 269.325 211.05 269.325 C 176.497 269.325 148.444 241.272 148.444 206.719 Z " fill="rgb(245,185,71)"/><path d=" M 211.05 260.662 C 181.126 260.662 157.107 236.643 157.107 206.719 C 157.107 176.794 181.126 152.775 211.05 152.775 C 240.975 152.775 264.994 177.187 264.994 206.719 C 264.994 236.25 240.975 260.662 211.05 260.662 Z " fill="rgb(243,212,121)"/><path d=" M 208.687 250.031 L 208.687 242.156 C 198.843 240.974 190.181 237.431 182.306 230.344 L 190.181 220.894 C 196.087 226.013 202.387 229.163 208.687 230.344 L 208.687 209.475 C 200.812 207.506 194.905 205.144 190.968 201.994 C 187.424 198.843 185.456 194.119 185.456 188.212 C 185.456 182.306 187.424 177.187 191.756 173.25 C 196.087 169.313 201.6 167.343 208.687 166.949 L 208.687 161.437 L 215.38 161.437 L 215.38 166.949 C 223.256 167.343 230.737 170.099 237.43 174.824 L 230.343 184.668 C 225.618 181.124 220.499 179.155 214.987 178.367 L 214.987 198.449 L 215.38 198.449 C 223.649 200.417 229.555 202.78 233.493 206.324 C 237.43 209.474 239.4 214.199 239.4 220.498 C 239.4 226.798 237.037 231.917 232.706 235.854 C 228.375 239.791 222.469 241.761 214.988 242.155 L 214.988 250.03 L 208.687 250.03 L 208.687 250.031 Z  M 201.206 180.731 C 199.237 182.306 198.45 184.275 198.45 186.637 C 198.45 189 199.237 190.968 200.418 192.15 C 201.993 193.725 204.355 194.906 208.687 196.087 L 208.687 177.581 C 205.538 178.368 203.175 179.156 201.206 180.731 Z  M 223.65 227.587 C 225.619 226.013 226.801 224.043 226.801 221.287 C 226.801 218.925 226.013 216.956 224.438 215.38 C 222.864 213.806 220.107 212.624 215.775 211.443 L 215.775 230.737 C 218.925 230.344 221.681 229.556 223.65 227.587 Z " fill="rgb(245,185,71)"/><path d=" M 346.107 266.569 L 273.656 239.007 L 301.218 311.062 L 313.426 289.8 L 327.6 304.369 L 339.019 292.951 L 324.844 278.381 L 346.107 266.569 Z " fill="rgb(50,74,94)"/></g></svg>