<?xml version="1.0" standalone="no"?><!-- Generator: Gravit.io --><svg xmlns="http://www.w3.org/2000/svg" xmlns:xlink="http://www.w3.org/1999/xlink" style="isolation:isolate" viewBox="0 0 512 512" width="512" height="512"><defs><clipPath id="_clipPath_nC1iP3OWtuT3LoHF1mao7YClR9c9REQC"><rect width="512" height="512"/></clipPath></defs><g clip-path="url(#_clipPath_nC1iP3OWtuT3LoHF1mao7YClR9c9REQC)"><path d=" M 0 256 C 0 114.71 114.71 0 256 0 C 397.29 0 512 114.71 512 256 C 512 397.29 397.29 512 256 512 C 114.71 512 0 397.29 0 256 Z " fill="rgb(0,171,229)"/><path d=" M 260.539 363.513 L 312.623 332.095 C 324.688 324.808 331.139 338.785 323.852 342.846 L 283.117 365.304 L 260.539 363.513 L 260.539 363.513 Z " fill="rgb(254,201,130)"/><g id="Group"><path d=" M 283.356 360.646 L 339.263 326.242 C 352.403 318.119 359.332 334.604 352.165 338.785 L 313.819 361.243 L 283.357 360.765 L 283.357 360.646 L 283.356 360.646 Z " fill="rgb(255,209,144)"/><path d=" M 148.248 372.592 L 42.169 396.842 C 26.162 372.472 14.096 345.236 7.048 316.088 L 139.528 307.368 C 160.792 304.382 180.383 304.501 189.103 309.279 C 204.513 317.88 202.841 336.635 238.081 346.431 L 288.373 355.151 L 369.127 335.321 C 383.94 332.693 386.926 349.298 377.131 353.24 L 268.662 391.706 C 254.089 396.842 218.968 385.015 148.248 372.592 Z " fill="rgb(255,209,144)"/></g><path d=" M 304.381 351.209 C 309.876 357.062 298.886 360.288 283.237 363.633 C 272.008 366.022 256.956 368.889 249.669 370.681 C 235.573 371.159 199.377 362.558 173.932 353.24 C 186.953 353.001 241.426 369.247 250.027 367.575 C 258.628 365.903 299.841 355.032 302.589 353.479 C 305.336 351.925 304.022 352.164 304.381 351.209 Z " fill="rgb(240,185,125)"/><path d=" M 92.819 300.558 L 107.035 405.801 L 55.309 414.88 C 30.82 384.06 13.379 347.386 5.256 307.367 L 92.819 300.558 L 92.819 300.558 Z " fill="rgb(107,127,158)"/><path d=" M 111.933 301.275 L 125.79 399.948 L 106.677 402.456 L 92.819 303.664 L 111.933 301.275 Z " fill="rgb(255,255,255)"/><path d=" M 97.717 391.466 C 98.195 395.408 95.567 398.992 91.744 399.47 C 87.921 399.948 84.338 397.2 83.86 393.258 C 83.382 389.316 86.01 385.732 89.833 385.254 C 93.656 384.776 97.239 387.524 97.717 391.466 Z " fill="rgb(133,151,177)"/><path d=" M 175.843 305.814 C 202.243 301.633 219.804 317.163 233.064 335.798 L 257.075 341.413 C 257.075 341.413 279.533 336.515 291.599 340.218 C 303.545 343.921 307.248 353.597 302.589 356.225 C 297.93 358.853 258.628 365.782 250.027 367.454 C 241.307 369.126 192.328 358.972 174.051 353.238 C 155.774 347.623 145.023 312.383 175.843 305.693 L 175.843 305.814 L 175.843 305.814 Z " fill="rgb(255,209,144)"/><path d=" M 368.888 356.106 L 381.67 351.925 C 383.223 351.447 381.909 347.386 379.878 347.386 C 377.847 347.386 366.26 350.253 366.26 350.253 C 367.694 351.806 369.247 354.076 368.888 356.106 Z " fill="rgb(255,241,223)"/><path d=" M 285.387 359.332 L 301.633 355.748 C 302.947 355.509 301.872 349.178 298.766 347.864 C 295.66 346.669 282.161 349.417 282.161 349.417 C 283.236 351.687 285.028 355.748 285.267 359.213 L 285.387 359.332 L 285.387 359.332 Z " fill="rgb(255,255,255)"/><path d=" M 263.048 201.049 L 298.408 198.301 C 303.425 197.943 316.805 189.581 316.805 189.581 L 304.023 168.078 L 271.052 164.136 L 245.607 187.55 L 235.811 207.619 C 229.958 218.131 210.725 216.101 215.384 202.721 L 226.494 169.153 C 226.494 169.153 254.328 139.169 264.601 134.988 C 274.874 130.807 347.147 127.223 347.147 127.223 C 347.147 127.223 406.279 159.477 428.259 173.454 L 498.023 172.498 C 504.593 191.611 509.013 211.68 510.925 232.466 L 423.003 230.435 C 423.003 230.435 367.096 241.306 348.102 238.558 C 328.989 235.81 302.588 227.568 302.588 227.568 C 302.588 227.568 269.259 228.165 259.822 223.865 C 246.443 219.206 247.518 202.243 263.167 201.048 L 263.048 201.048 L 263.048 201.049 Z " fill="rgb(255,209,144)"/><path d=" M 215.862 198.66 C 216.459 198.899 219.685 200.213 219.685 200.213 L 216.46 210.009 C 216.46 210.009 212.637 211.801 213.235 207.62 C 213.832 203.439 215.863 198.541 215.863 198.541 L 215.863 198.66 L 215.862 198.66 Z " fill="rgb(255,255,255)"/><path d=" M 273.919 200.571 C 273.561 199.018 273.202 197.465 272.724 195.912 C 270.454 188.864 266.632 182.533 261.734 177.276 C 252.775 167.839 240.231 161.985 226.255 161.985 C 199.257 161.985 177.396 183.846 177.396 210.844 C 177.396 237.842 199.257 259.703 226.255 259.703 C 242.979 259.703 257.792 251.341 266.513 238.439 C 269.858 233.661 272.247 228.285 273.681 222.432 C 274.039 220.998 274.278 219.565 274.517 218.131 C 274.875 215.742 275.114 213.233 275.114 210.725 C 275.114 207.141 274.756 203.677 274.039 200.332 L 274.039 200.332 L 273.919 200.571 L 273.919 200.571 Z " fill="rgb(255,227,86)"/><path d=" M 271.649 201.049 C 271.291 199.615 270.932 198.063 270.454 196.629 C 268.304 189.939 264.72 183.966 259.942 178.949 C 251.46 169.99 239.395 164.375 226.135 164.375 C 200.451 164.375 179.546 185.28 179.546 210.964 C 179.546 236.648 200.451 257.553 226.135 257.553 C 242.023 257.553 256.119 249.549 264.481 237.364 C 267.587 232.825 269.976 227.688 271.29 222.073 C 271.648 220.759 271.887 219.325 272.126 217.892 C 272.484 215.622 272.604 213.233 272.604 210.844 C 272.604 207.38 272.246 204.154 271.529 200.929 L 271.529 200.929 L 271.649 201.049 L 271.649 201.049 Z " fill="rgb(252,211,78)"/><g id="Group"><path d=" M 226.135 174.529 C 206.066 174.529 189.7 190.775 189.7 210.964 C 189.7 231.033 206.066 247.399 226.135 247.399 C 246.204 247.399 262.57 231.033 262.57 210.964 C 262.57 190.895 246.324 174.529 226.135 174.529 L 226.135 174.529 L 226.135 174.529 Z  M 226.135 179.069 C 243.695 179.069 258.03 193.404 258.03 210.964 C 258.03 228.524 243.695 242.859 226.135 242.859 C 208.575 242.859 194.24 228.524 194.24 210.964 C 194.24 193.404 208.575 179.069 226.135 179.069 Z " fill="rgb(255,227,86)"/><path d=" M 223.268 233.303 L 223.268 228.166 C 219.565 228.047 216.1 226.971 213.95 225.777 L 215.622 219.326 C 217.892 220.64 221.117 221.715 224.701 221.715 C 227.807 221.715 229.957 220.52 229.957 218.37 C 229.957 216.339 228.165 215.025 224.223 213.592 C 218.37 211.681 214.427 208.933 214.427 203.557 C 214.427 198.779 217.772 194.956 223.625 193.881 L 223.625 188.744 L 229.001 188.744 L 229.001 193.522 C 232.704 193.641 235.093 194.478 236.885 195.314 L 235.332 201.526 C 233.898 200.929 231.39 199.615 227.448 199.615 C 223.864 199.615 222.789 201.168 222.789 202.721 C 222.789 204.513 224.7 205.707 229.359 207.38 C 235.81 209.65 238.438 212.636 238.438 217.653 C 238.438 222.551 234.974 226.612 228.762 227.807 L 228.762 233.422 L 223.386 233.422 L 223.268 233.303 L 223.268 233.303 Z " fill="rgb(255,227,86)"/></g><path d=" M 263.048 201.049 C 278.697 199.854 293.271 198.54 298.408 198.301 C 303.425 197.943 316.805 189.581 316.805 189.581 C 316.805 189.581 351.567 203.916 349.298 218.371 C 347.029 232.826 343.922 233.303 339.98 237.245 C 322.3 233.781 302.47 227.688 302.47 227.688 C 302.47 227.688 269.141 228.285 259.704 223.985 C 246.325 219.326 247.4 202.363 263.049 201.168 L 263.049 201.049 L 263.048 201.049 Z " fill="rgb(255,209,144)"/><path d=" M 431.843 159.955 L 437.697 252.655 L 462.186 251.102 L 456.332 158.402 L 431.843 159.955 Z " fill="rgb(255,255,255)"/><path d=" M 452.032 148.846 L 459.2 261.018 L 512 260.181 C 512 258.747 512 257.314 512 255.88 C 512 216.459 503.041 179.188 487.153 145.739 L 451.913 148.725 L 452.032 148.846 L 452.032 148.846 Z " fill="rgb(107,127,158)"/><path d=" M 252.894 214.428 L 269.857 213.95 L 269.857 224.223 C 269.857 224.223 255.164 224.82 252.416 222.551 C 249.668 220.162 250.863 215.264 252.894 214.547 L 252.894 214.428 L 252.894 214.428 Z " fill="rgb(255,255,255)"/><path d=" M 483.091 245.607 C 483.569 249.549 480.941 253.133 477.118 253.611 C 473.295 254.089 469.712 251.341 469.234 247.399 C 468.756 243.457 471.384 239.873 475.207 239.395 C 479.029 238.917 482.613 241.665 483.091 245.607 Z " fill="rgb(133,151,177)"/></g></svg>