<?xml version="1.0" standalone="no"?><!-- Generator: Gravit.io --><svg xmlns="http://www.w3.org/2000/svg" xmlns:xlink="http://www.w3.org/1999/xlink" style="isolation:isolate" viewBox="0 0 250 250" width="250" height="250"><defs><clipPath id="_clipPath_5puquKTz9rgAQ5G4H3s7ssjiDmWEwcce"><rect width="250" height="250"/></clipPath></defs><g clip-path="url(#_clipPath_5puquKTz9rgAQ5G4H3s7ssjiDmWEwcce)"><clipPath id="_clipPath_zLtGouALxRHXSFbvLYyThE9lsJN49FS5"><rect x="0" y="0" width="250" height="250" transform="matrix(1,0,0,1,0,0)" fill="rgb(255,255,255)"/></clipPath><g clip-path="url(#_clipPath_zLtGouALxRHXSFbvLYyThE9lsJN49FS5)"><g id="Group"><rect x="0" y="0" width="250" height="250" transform="matrix(1,0,0,1,0,0)" fill="rgb(60,140,231)"/><path d=" M 0 243 C 0 197.191 56.011 160 125 160 C 193.989 160 250 197.191 250 243 C 250 288.809 193.989 326 125 326 C 56.011 326 0 288.809 0 243 Z " fill="rgb(75,159,255)"/><path d=" M 75.5 86 C 75.5 56.749 97.68 33 125 33 C 152.32 33 174.5 56.749 174.5 86 C 174.5 115.251 152.32 139 125 139 C 97.68 139 75.5 115.251 75.5 86 Z " fill="rgb(75,159,255)"/></g></g></g></svg>