<?xml version="1.0" standalone="no"?><!-- Generator: Gravit.io --><svg xmlns="http://www.w3.org/2000/svg" xmlns:xlink="http://www.w3.org/1999/xlink" style="isolation:isolate" viewBox="0 0 508 508" width="508" height="508"><defs><clipPath id="_clipPath_Z9pb4pQHcz73H5xBeDKtPepv9btI5xtH"><rect width="508" height="508"/></clipPath></defs><g clip-path="url(#_clipPath_Z9pb4pQHcz73H5xBeDKtPepv9btI5xtH)"><path d=" M 0 254 C 0 113.814 113.814 0 254 0 C 394.186 0 508 113.814 508 254 C 508 394.186 394.186 508 254 508 C 113.814 508 0 394.186 0 254 Z " fill="rgb(0,173,233)"/><path d=" M 420.4 214.4 L 420.4 322.4 C 420.4 344 402.8 361.6 381.2 361.6 L 381.2 361.6 L 381.2 412.4 L 319.2 361.6 L 206 361.6 C 184.4 361.6 166.8 344 166.8 322.4 L 166.8 300 L 188.4 282 L 302 282 C 323.6 282 341.2 264.4 341.2 242.8 L 341.2 174.8 L 381.2 174.8 C 402.8 175.2 420.4 192.8 420.4 214.4 Z " fill="rgb(44,153,132)"/><path d=" M 302 95.6 L 126.8 95.6 C 105.2 95.6 87.6 113.2 87.6 134.8 L 87.6 242.8 C 87.6 264.4 105.2 282 126.8 282 L 126.8 282 L 126.8 332.8 L 188.8 282 L 302 282 C 323.6 282 341.2 264.4 341.2 242.8 L 341.2 134.8 C 341.2 113.2 323.6 95.6 302 95.6 Z " fill="rgb(255,255,255)"/><g id="Group"><path d=" M 117.2 190 C 117.2 176.533 128.133 165.6 141.6 165.6 C 155.067 165.6 166 176.533 166 190 C 166 203.467 155.067 214.4 141.6 214.4 C 128.133 214.4 117.2 203.467 117.2 190 Z " fill="rgb(132,219,255)"/><path d=" M 190 190 C 190 176.533 200.933 165.6 214.4 165.6 C 227.867 165.6 238.8 176.533 238.8 190 C 238.8 203.467 227.867 214.4 214.4 214.4 C 200.933 214.4 190 203.467 190 190 Z " fill="rgb(132,219,255)"/><path d=" M 262.4 190 C 262.4 176.533 273.333 165.6 286.8 165.6 C 300.267 165.6 311.2 176.533 311.2 190 C 311.2 203.467 300.267 214.4 286.8 214.4 C 273.333 214.4 262.4 203.467 262.4 190 Z " fill="rgb(132,219,255)"/></g></g></svg>