<?xml version="1.0" standalone="no"?><!-- Generator: Gravit.io --><svg xmlns="http://www.w3.org/2000/svg" xmlns:xlink="http://www.w3.org/1999/xlink" style="isolation:isolate" viewBox="0 0 600 300" width="600" height="300"><defs><clipPath id="_clipPath_K2sy5GUIhrvi0lhLP4OPcmqXHrBojBkd"><rect width="600" height="300"/></clipPath></defs><g clip-path="url(#_clipPath_K2sy5GUIhrvi0lhLP4OPcmqXHrBojBkd)"><path d="M 355.31 9 L 581.69 9 C 582.965 9 584 10.035 584 11.31 L 584 287.69 C 584 288.965 582.965 290 581.69 290 L 355.31 290 C 354.035 290 353 288.965 353 287.69 L 353 11.31 C 353 10.035 354.035 9 355.31 9 Z" style="stroke:none;fill:#F5F5F5;stroke-miterlimit:10;"/><g id="Group"><path d=" M 53.812 55 C 53.812 38.443 67.255 25 83.812 25 C 100.37 25 113.812 38.443 113.812 55 C 113.812 71.557 100.37 85 83.812 85 C 67.255 85 53.812 71.557 53.812 55 Z " fill="rgb(60,140,231)"/><clipPath id="_clipPath_ihhiMHyVzI6nKKFyHD4uACRKRDNkSaKH"><path d="M 83.812 25 L 83.812 25 C 100.37 25 113.812 38.443 113.812 55 L 113.812 55 C 113.812 71.557 100.37 85 83.812 85 L 83.812 85 C 67.255 85 53.812 71.557 53.812 55 L 53.812 55 C 53.812 38.443 67.255 25 83.812 25 Z" style="stroke:black;fill:white;stroke-miterlimit:10;"/></clipPath><g clip-path="url(#_clipPath_ihhiMHyVzI6nKKFyHD4uACRKRDNkSaKH)"><g id="Group"><clipPath id="_clipPath_mDeixUUOLyfboGsAJferoUHOI2dHkiVU"><rect x="54.544" y="25" width="60" height="60" transform="matrix(1,0,0,1,0,0)" fill="rgb(255,255,255)"/></clipPath><g clip-path="url(#_clipPath_mDeixUUOLyfboGsAJferoUHOI2dHkiVU)"><g id="Group"><g id="Group"><rect x="29.666" y="25" width="84.878" height="60" transform="matrix(1,0,0,1,0,0)" fill="rgb(60,140,231)"/><path d=" M 54.544 83.32 C 54.544 72.326 67.987 63.4 84.544 63.4 C 101.102 63.4 114.544 72.326 114.544 83.32 C 114.544 94.314 101.102 103.24 84.544 103.24 C 67.987 103.24 54.544 94.314 54.544 83.32 Z " fill="rgb(75,159,255)"/><path d=" M 72.664 45.64 C 72.664 38.62 77.987 32.92 84.544 32.92 C 91.101 32.92 96.424 38.62 96.424 45.64 C 96.424 52.66 91.101 58.36 84.544 58.36 C 77.987 58.36 72.664 52.66 72.664 45.64 Z " fill="rgb(75,159,255)"/></g></g></g></g></g></g><path d="M 59.992 100 L 107.633 100 C 111.044 100 113.812 102.24 113.812 105 L 113.812 105 C 113.812 107.76 111.044 110 107.633 110 L 59.992 110 C 56.581 110 53.812 107.76 53.812 105 L 53.812 105 C 53.812 102.24 56.581 100 59.992 100 Z" style="stroke:none;fill:#B6D8FF;stroke-miterlimit:10;"/><g id="Group"><path d=" M 226.812 55 C 226.812 38.443 240.255 25 256.812 25 C 273.37 25 286.812 38.443 286.812 55 C 286.812 71.557 273.37 85 256.812 85 C 240.255 85 226.812 71.557 226.812 55 Z " fill="rgb(60,140,231)"/><clipPath id="_clipPath_l4BtLXFYPlGYwWUW3o9cfJ0YjOvgktnY"><path d="M 256.812 25 L 256.812 25 C 273.37 25 286.812 38.443 286.812 55 L 286.812 55 C 286.812 71.557 273.37 85 256.812 85 L 256.812 85 C 240.255 85 226.812 71.557 226.812 55 L 226.812 55 C 226.812 38.443 240.255 25 256.812 25 Z" style="stroke:black;fill:white;stroke-miterlimit:10;"/></clipPath><g clip-path="url(#_clipPath_l4BtLXFYPlGYwWUW3o9cfJ0YjOvgktnY)"><g id="Group"><clipPath id="_clipPath_VJVx5STdm5QKrYn6ULOs98q5RT6kiMw0"><rect x="227.544" y="25" width="60" height="60" transform="matrix(1,0,0,1,0,0)" fill="rgb(255,255,255)"/></clipPath><g clip-path="url(#_clipPath_VJVx5STdm5QKrYn6ULOs98q5RT6kiMw0)"><g id="Group"><g id="Group"><rect x="202.666" y="25" width="84.878" height="60" transform="matrix(1,0,0,1,0,0)" fill="rgb(60,140,231)"/><path d=" M 227.544 83.32 C 227.544 72.326 240.987 63.4 257.544 63.4 C 274.102 63.4 287.544 72.326 287.544 83.32 C 287.544 94.314 274.102 103.24 257.544 103.24 C 240.987 103.24 227.544 94.314 227.544 83.32 Z " fill="rgb(75,159,255)"/><path d=" M 245.664 45.64 C 245.664 38.62 250.987 32.92 257.544 32.92 C 264.101 32.92 269.424 38.62 269.424 45.64 C 269.424 52.66 264.101 58.36 257.544 58.36 C 250.987 58.36 245.664 52.66 245.664 45.64 Z " fill="rgb(75,159,255)"/></g></g></g></g></g></g><path d="M 232.992 100 L 280.633 100 C 284.044 100 286.813 102.24 286.813 105 L 286.813 105 C 286.813 107.76 284.044 110 280.633 110 L 232.992 110 C 229.581 110 226.812 107.76 226.812 105 L 226.812 105 C 226.812 102.24 229.581 100 232.992 100 Z" style="stroke:none;fill:#B6D8FF;stroke-miterlimit:10;"/><path d="M 129.285 129 L 211.34 129 C 213.809 129 215.812 131.004 215.812 133.472 L 215.812 134.528 C 215.812 136.996 213.809 139 211.34 139 L 129.285 139 C 126.816 139 124.812 136.996 124.812 134.528 L 124.812 133.472 C 124.812 131.004 126.816 129 129.285 129 Z" style="stroke:none;fill:#00A64D;stroke-miterlimit:10;"/><path d="M 46.87 150 L 293.755 150 C 294.787 150 295.625 150.838 295.625 151.87 L 295.625 288.13 C 295.625 289.162 294.787 290 293.755 290 L 46.87 290 C 45.838 290 45 289.162 45 288.13 L 45 151.87 C 45 150.838 45.838 150 46.87 150 Z" style="stroke:none;fill:#F5F5F5;stroke-miterlimit:10;"/><path d="M 353 266 L 584 266 L 584 288 C 584 289.104 583.104 290 582 290 L 355 290 C 353.896 290 353 289.104 353 288 L 353 266 Z" style="stroke:none;fill:#EEEEEE;stroke-miterlimit:10;"/><path d="M 358 270 L 550 270 L 550 286 L 358 286 C 356.896 286 356 285.104 356 284 L 356 272 C 356 270.896 356.896 270 358 270 Z" style="stroke:none;fill:#FFFFFF;stroke-miterlimit:10;"/><path d="M 550 270 L 579 270 C 580.104 270 581 270.896 581 272 L 581 284 C 581 285.104 580.104 286 579 286 L 550 286 L 550 270 Z" style="stroke:none;fill:#EBEBEB;stroke-miterlimit:10;"/><g id="Group"><g id="Group"><g id="Group"><path d=" M 363 37.75 C 363 33.335 366.585 29.75 371 29.75 C 375.415 29.75 379 33.335 379 37.75 C 379 42.165 375.415 45.75 371 45.75 C 366.585 45.75 363 42.165 363 37.75 Z " fill="rgb(60,140,231)"/><clipPath id="_clipPath_RTk1heVlSuHnOgPWIHYl9QrTwMMcVJv8"><path d="M 371 29.75 L 371 29.75 C 375.415 29.75 379 33.335 379 37.75 L 379 37.75 C 379 42.165 375.415 45.75 371 45.75 L 371 45.75 C 366.585 45.75 363 42.165 363 37.75 L 363 37.75 C 363 33.335 366.585 29.75 371 29.75 Z" style="stroke:black;fill:white;stroke-miterlimit:10;"/></clipPath><g clip-path="url(#_clipPath_RTk1heVlSuHnOgPWIHYl9QrTwMMcVJv8)"><g id="Group"><clipPath id="_clipPath_UTfHTPW6IbtMTFJkPiVGIEuZnHlgyU0e"><rect x="363.195" y="29.75" width="16" height="16" transform="matrix(1,0,0,1,0,0)" fill="rgb(255,255,255)"/></clipPath><g clip-path="url(#_clipPath_UTfHTPW6IbtMTFJkPiVGIEuZnHlgyU0e)"><g id="Group"><g id="Group"><rect x="356.561" y="29.75" width="22.634" height="16" transform="matrix(1,0,0,1,0,0)" fill="rgb(60,140,231)"/><path d=" M 363.195 45.302 C 363.195 42.37 366.78 39.99 371.195 39.99 C 375.61 39.99 379.195 42.37 379.195 45.302 C 379.195 48.234 375.61 50.614 371.195 50.614 C 366.78 50.614 363.195 48.234 363.195 45.302 Z " fill="rgb(75,159,255)"/><path d=" M 368.027 35.254 C 368.027 33.382 369.447 31.862 371.195 31.862 C 372.944 31.862 374.363 33.382 374.363 35.254 C 374.363 37.126 372.944 38.646 371.195 38.646 C 369.447 38.646 368.027 37.126 368.027 35.254 Z " fill="rgb(75,159,255)"/></g></g></g></g></g></g><path d="M 366.18 50.75 L 570.82 50.75 C 572.575 50.75 574 52.175 574 53.93 L 574 59.57 C 574 61.325 572.575 62.75 570.82 62.75 L 366.18 62.75 C 364.425 62.75 363 61.325 363 59.57 L 363 53.93 C 363 52.175 364.425 50.75 366.18 50.75 Z" style="stroke:none;fill:#FFFFFF;stroke-miterlimit:10;"/><path d="M 388.31 33.75 L 409.69 33.75 C 411.517 33.75 413 35.233 413 37.06 L 413 38.44 C 413 40.267 411.517 41.75 409.69 41.75 L 388.31 41.75 C 386.483 41.75 385 40.267 385 38.44 L 385 37.06 C 385 35.233 386.483 33.75 388.31 33.75 Z" style="stroke:none;fill:#B6D8FF;stroke-miterlimit:10;"/></g><g id="Group"><g id="Group"><path d=" M 363 84.75 C 363 80.335 366.585 76.75 371 76.75 C 375.415 76.75 379 80.335 379 84.75 C 379 89.165 375.415 92.75 371 92.75 C 366.585 92.75 363 89.165 363 84.75 Z " fill="rgb(60,140,231)"/><clipPath id="_clipPath_Mdztp9lG3nFjXHkNavzdnAi4oFYvxTHj"><path d="M 371 76.75 L 371 76.75 C 375.415 76.75 379 80.335 379 84.75 L 379 84.75 C 379 89.165 375.415 92.75 371 92.75 L 371 92.75 C 366.585 92.75 363 89.165 363 84.75 L 363 84.75 C 363 80.335 366.585 76.75 371 76.75 Z" style="stroke:black;fill:white;stroke-miterlimit:10;"/></clipPath><g clip-path="url(#_clipPath_Mdztp9lG3nFjXHkNavzdnAi4oFYvxTHj)"><g id="Group"><clipPath id="_clipPath_V1wxzLr0l6PXRFb3MQwN7FIH3aagAgSu"><rect x="363.195" y="76.75" width="16" height="16" transform="matrix(1,0,0,1,0,0)" fill="rgb(255,255,255)"/></clipPath><g clip-path="url(#_clipPath_V1wxzLr0l6PXRFb3MQwN7FIH3aagAgSu)"><g id="Group"><g id="Group"><rect x="356.561" y="76.75" width="22.634" height="16" transform="matrix(1,0,0,1,0,0)" fill="rgb(60,140,231)"/><path d=" M 363.195 92.302 C 363.195 89.37 366.78 86.99 371.195 86.99 C 375.61 86.99 379.195 89.37 379.195 92.302 C 379.195 95.234 375.61 97.614 371.195 97.614 C 366.78 97.614 363.195 95.234 363.195 92.302 Z " fill="rgb(75,159,255)"/><path d=" M 368.027 82.254 C 368.027 80.382 369.447 78.862 371.195 78.862 C 372.944 78.862 374.363 80.382 374.363 82.254 C 374.363 84.126 372.944 85.646 371.195 85.646 C 369.447 85.646 368.027 84.126 368.027 82.254 Z " fill="rgb(75,159,255)"/></g></g></g></g></g></g><path d="M 366.18 97.75 L 570.82 97.75 C 572.575 97.75 574 99.175 574 100.93 L 574 106.57 C 574 108.325 572.575 109.75 570.82 109.75 L 366.18 109.75 C 364.425 109.75 363 108.325 363 106.57 L 363 100.93 C 363 99.175 364.425 97.75 366.18 97.75 Z" style="stroke:none;fill:#FFFFFF;stroke-miterlimit:10;"/><path d="M 388.31 80.75 L 409.69 80.75 C 411.517 80.75 413 82.233 413 84.06 L 413 85.44 C 413 87.267 411.517 88.75 409.69 88.75 L 388.31 88.75 C 386.483 88.75 385 87.267 385 85.44 L 385 84.06 C 385 82.233 386.483 80.75 388.31 80.75 Z" style="stroke:none;fill:#B6D8FF;stroke-miterlimit:10;"/></g><g id="Group"><g id="Group"><path d=" M 363 130.75 C 363 126.335 366.585 122.75 371 122.75 C 375.415 122.75 379 126.335 379 130.75 C 379 135.165 375.415 138.75 371 138.75 C 366.585 138.75 363 135.165 363 130.75 Z " fill="rgb(60,140,231)"/><clipPath id="_clipPath_PII8P6O2tegaTcr5TFX7Kh8gfloIV7HB"><path d="M 371 122.75 L 371 122.75 C 375.415 122.75 379 126.335 379 130.75 L 379 130.75 C 379 135.165 375.415 138.75 371 138.75 L 371 138.75 C 366.585 138.75 363 135.165 363 130.75 L 363 130.75 C 363 126.335 366.585 122.75 371 122.75 Z" style="stroke:black;fill:white;stroke-miterlimit:10;"/></clipPath><g clip-path="url(#_clipPath_PII8P6O2tegaTcr5TFX7Kh8gfloIV7HB)"><g id="Group"><clipPath id="_clipPath_fzMR6SMcYOOqadVnxtbXrzLpPIYR92WD"><rect x="363.195" y="122.75" width="16" height="16" transform="matrix(1,0,0,1,0,0)" fill="rgb(255,255,255)"/></clipPath><g clip-path="url(#_clipPath_fzMR6SMcYOOqadVnxtbXrzLpPIYR92WD)"><g id="Group"><g id="Group"><rect x="356.561" y="122.75" width="22.634" height="16" transform="matrix(1,0,0,1,0,0)" fill="rgb(60,140,231)"/><path d=" M 363.195 138.302 C 363.195 135.37 366.78 132.99 371.195 132.99 C 375.61 132.99 379.195 135.37 379.195 138.302 C 379.195 141.234 375.61 143.614 371.195 143.614 C 366.78 143.614 363.195 141.234 363.195 138.302 Z " fill="rgb(75,159,255)"/><path d=" M 368.027 128.254 C 368.027 126.382 369.447 124.862 371.195 124.862 C 372.944 124.862 374.363 126.382 374.363 128.254 C 374.363 130.126 372.944 131.646 371.195 131.646 C 369.447 131.646 368.027 130.126 368.027 128.254 Z " fill="rgb(75,159,255)"/></g></g></g></g></g></g><path d="M 366.18 143.75 L 570.82 143.75 C 572.575 143.75 574 145.175 574 146.93 L 574 152.57 C 574 154.325 572.575 155.75 570.82 155.75 L 366.18 155.75 C 364.425 155.75 363 154.325 363 152.57 L 363 146.93 C 363 145.175 364.425 143.75 366.18 143.75 Z" style="stroke:none;fill:#FFFFFF;stroke-miterlimit:10;"/><path d="M 388.31 126.75 L 409.69 126.75 C 411.517 126.75 413 128.233 413 130.06 L 413 131.44 C 413 133.267 411.517 134.75 409.69 134.75 L 388.31 134.75 C 386.483 134.75 385 133.267 385 131.44 L 385 130.06 C 385 128.233 386.483 126.75 388.31 126.75 Z" style="stroke:none;fill:#B6D8FF;stroke-miterlimit:10;"/></g><g id="Group"><g id="Group"><path d=" M 363 176.75 C 363 172.335 366.585 168.75 371 168.75 C 375.415 168.75 379 172.335 379 176.75 C 379 181.165 375.415 184.75 371 184.75 C 366.585 184.75 363 181.165 363 176.75 Z " fill="rgb(60,140,231)"/><clipPath id="_clipPath_IQRgzztxgfnOBU6D30BT2TS5blHUwFsW"><path d="M 371 168.75 L 371 168.75 C 375.415 168.75 379 172.335 379 176.75 L 379 176.75 C 379 181.165 375.415 184.75 371 184.75 L 371 184.75 C 366.585 184.75 363 181.165 363 176.75 L 363 176.75 C 363 172.335 366.585 168.75 371 168.75 Z" style="stroke:black;fill:white;stroke-miterlimit:10;"/></clipPath><g clip-path="url(#_clipPath_IQRgzztxgfnOBU6D30BT2TS5blHUwFsW)"><g id="Group"><clipPath id="_clipPath_Etno1J26T0UdquO4c4msHjNOBaJ6seyG"><rect x="363.195" y="168.75" width="16" height="16" transform="matrix(1,0,0,1,0,0)" fill="rgb(255,255,255)"/></clipPath><g clip-path="url(#_clipPath_Etno1J26T0UdquO4c4msHjNOBaJ6seyG)"><g id="Group"><g id="Group"><rect x="356.561" y="168.75" width="22.634" height="16" transform="matrix(1,0,0,1,0,0)" fill="rgb(60,140,231)"/><path d=" M 363.195 184.302 C 363.195 181.37 366.78 178.99 371.195 178.99 C 375.61 178.99 379.195 181.37 379.195 184.302 C 379.195 187.234 375.61 189.614 371.195 189.614 C 366.78 189.614 363.195 187.234 363.195 184.302 Z " fill="rgb(75,159,255)"/><path d=" M 368.027 174.254 C 368.027 172.382 369.447 170.862 371.195 170.862 C 372.944 170.862 374.363 172.382 374.363 174.254 C 374.363 176.126 372.944 177.646 371.195 177.646 C 369.447 177.646 368.027 176.126 368.027 174.254 Z " fill="rgb(75,159,255)"/></g></g></g></g></g></g><path d="M 366.18 189.75 L 570.82 189.75 C 572.575 189.75 574 191.175 574 192.93 L 574 198.57 C 574 200.325 572.575 201.75 570.82 201.75 L 366.18 201.75 C 364.425 201.75 363 200.325 363 198.57 L 363 192.93 C 363 191.175 364.425 189.75 366.18 189.75 Z" style="stroke:none;fill:#FFFFFF;stroke-miterlimit:10;"/><path d="M 388.31 172.75 L 409.69 172.75 C 411.517 172.75 413 174.233 413 176.06 L 413 177.44 C 413 179.267 411.517 180.75 409.69 180.75 L 388.31 180.75 C 386.483 180.75 385 179.267 385 177.44 L 385 176.06 C 385 174.233 386.483 172.75 388.31 172.75 Z" style="stroke:none;fill:#B6D8FF;stroke-miterlimit:10;"/></g><g id="Group"><g id="Group"><path d=" M 363 223.25 C 363 218.835 366.585 215.25 371 215.25 C 375.415 215.25 379 218.835 379 223.25 C 379 227.665 375.415 231.25 371 231.25 C 366.585 231.25 363 227.665 363 223.25 Z " fill="rgb(60,140,231)"/><clipPath id="_clipPath_j3G0b9OAjXJRsh2iEWVAOPpRXkrKf6tO"><path d="M 371 215.25 L 371 215.25 C 375.415 215.25 379 218.835 379 223.25 L 379 223.25 C 379 227.665 375.415 231.25 371 231.25 L 371 231.25 C 366.585 231.25 363 227.665 363 223.25 L 363 223.25 C 363 218.835 366.585 215.25 371 215.25 Z" style="stroke:black;fill:white;stroke-miterlimit:10;"/></clipPath><g clip-path="url(#_clipPath_j3G0b9OAjXJRsh2iEWVAOPpRXkrKf6tO)"><g id="Group"><clipPath id="_clipPath_0UWfWoAYNlg9sS30JskOjAcIx1smk5w6"><rect x="363.195" y="215.25" width="16" height="16" transform="matrix(1,0,0,1,0,0)" fill="rgb(255,255,255)"/></clipPath><g clip-path="url(#_clipPath_0UWfWoAYNlg9sS30JskOjAcIx1smk5w6)"><g id="Group"><g id="Group"><rect x="356.561" y="215.25" width="22.634" height="16" transform="matrix(1,0,0,1,0,0)" fill="rgb(60,140,231)"/><path d=" M 363.195 230.802 C 363.195 227.87 366.78 225.49 371.195 225.49 C 375.61 225.49 379.195 227.87 379.195 230.802 C 379.195 233.734 375.61 236.114 371.195 236.114 C 366.78 236.114 363.195 233.734 363.195 230.802 Z " fill="rgb(75,159,255)"/><path d=" M 368.027 220.754 C 368.027 218.882 369.447 217.362 371.195 217.362 C 372.944 217.362 374.363 218.882 374.363 220.754 C 374.363 222.626 372.944 224.146 371.195 224.146 C 369.447 224.146 368.027 222.626 368.027 220.754 Z " fill="rgb(75,159,255)"/></g></g></g></g></g></g><path d="M 366.18 236.25 L 570.82 236.25 C 572.575 236.25 574 237.675 574 239.43 L 574 245.07 C 574 246.825 572.575 248.25 570.82 248.25 L 366.18 248.25 C 364.425 248.25 363 246.825 363 245.07 L 363 239.43 C 363 237.675 364.425 236.25 366.18 236.25 Z" style="stroke:none;fill:#FFFFFF;stroke-miterlimit:10;"/><path d="M 388.31 219.25 L 409.69 219.25 C 411.517 219.25 413 220.733 413 222.56 L 413 223.94 C 413 225.767 411.517 227.25 409.69 227.25 L 388.31 227.25 C 386.483 227.25 385 225.767 385 223.94 L 385 222.56 C 385 220.733 386.483 219.25 388.31 219.25 Z" style="stroke:none;fill:#B6D8FF;stroke-miterlimit:10;"/></g></g><path d="M 82.149 187 L 136.851 187 C 145.212 187 152 193.721 152 202 L 152 202 C 152 210.279 145.212 217 136.851 217 L 82.149 217 C 73.788 217 67 210.279 67 202 L 67 202 C 67 193.721 73.788 187 82.149 187 Z" style="stroke:none;fill:#EEEEEE;stroke-miterlimit:10;"/><path d="M 196.462 187 L 251.163 187 C 259.524 187 266.313 193.721 266.313 202 L 266.313 202 C 266.313 210.279 259.524 217 251.163 217 L 196.462 217 C 188.101 217 181.313 210.279 181.313 202 L 181.313 202 C 181.313 193.721 188.101 187 196.462 187 Z" style="stroke:none;fill:#EEEEEE;stroke-miterlimit:10;"/><path d="M 196.451 240 L 251.049 240 C 259.404 240 266.188 246.721 266.188 255 L 266.188 255 C 266.188 263.279 259.404 270 251.049 270 L 196.451 270 C 188.096 270 181.312 263.279 181.312 255 L 181.312 255 C 181.312 246.721 188.096 240 196.451 240 Z" style="stroke:none;fill:#EEEEEE;stroke-miterlimit:10;"/><path d="M 82.149 240 L 136.851 240 C 145.212 240 152 246.721 152 255 L 152 255 C 152 263.279 145.212 270 136.851 270 L 82.149 270 C 73.788 270 67 263.279 67 255 L 67 255 C 67 246.721 73.788 240 82.149 240 Z" style="stroke:none;fill:#EEEEEE;stroke-miterlimit:10;"/><path d="M 115.934 160 L 217.316 160 C 220.867 160 223.75 162.464 223.75 165.5 L 223.75 165.5 C 223.75 168.536 220.867 171 217.316 171 L 115.934 171 C 112.383 171 109.5 168.536 109.5 165.5 L 109.5 165.5 C 109.5 162.464 112.383 160 115.934 160 Z" style="stroke:none;fill:#EEEEEE;stroke-miterlimit:10;"/></g></svg>