<?xml version="1.0" standalone="no"?>
<!DOCTYPE svg PUBLIC "-//W3C//DTD SVG 20010904//EN"
 "http://www.w3.org/TR/2001/REC-SVG-20010904/DTD/svg10.dtd">
<svg version="1.0" xmlns="http://www.w3.org/2000/svg"
 width="700.000000pt" height="700.000000pt" viewBox="0 0 700.000000 700.000000"
 preserveAspectRatio="xMidYMid meet">
<metadata>
Created by potrace 1.11, written by Peter Selinger 2001-2013
</metadata>
<g transform="translate(0.000000,700.000000) scale(0.100000,-0.100000)"
fill="#000000" stroke="none">
<path d="M0 4845 l0 -2135 440 0 440 0 1 -47 c0 -27 1 -631 2 -1343 l2 -1295
313 -2 312 -2 0 1344 0 1345 1990 0 1990 0 0 -1344 0 -1345 314 0 314 1 1
1271 c0 700 0 1305 1 1345 l0 72 440 0 440 0 0 2135 0 2135 -3500 0 -3500 0 0
-2135z"/>
</g>
</svg>
